<svg id="visual" viewBox="0 0 900 600" width="900" height="600" xmlns="http://www.w3.org/2000/svg" xmlns:xlink="http://www.w3.org/1999/xlink" version="1.1"><rect x="0" y="0" width="900" height="600" fill="#000000"></rect><defs><linearGradient id="grad1_0" x1="33.3%" y1="0%" x2="100%" y2="100%"><stop offset="20%" stop-color="#1aae05" stop-opacity="1"></stop><stop offset="80%" stop-color="#1aae05" stop-opacity="1"></stop></linearGradient></defs><defs><linearGradient id="grad1_1" x1="33.3%" y1="0%" x2="100%" y2="100%"><stop offset="20%" stop-color="#1aae05" stop-opacity="1"></stop><stop offset="80%" stop-color="#009600" stop-opacity="1"></stop></linearGradient></defs><defs><linearGradient id="grad1_2" x1="33.3%" y1="0%" x2="100%" y2="100%"><stop offset="20%" stop-color="#007e00" stop-opacity="1"></stop><stop offset="80%" stop-color="#009600" stop-opacity="1"></stop></linearGradient></defs><defs><linearGradient id="grad1_3" x1="33.3%" y1="0%" x2="100%" y2="100%"><stop offset="20%" stop-color="#007e00" stop-opacity="1"></stop><stop offset="80%" stop-color="#006700" stop-opacity="1"></stop></linearGradient></defs><defs><linearGradient id="grad1_4" x1="33.3%" y1="0%" x2="100%" y2="100%"><stop offset="20%" stop-color="#005000" stop-opacity="1"></stop><stop offset="80%" stop-color="#006700" stop-opacity="1"></stop></linearGradient></defs><defs><linearGradient id="grad1_5" x1="33.3%" y1="0%" x2="100%" y2="100%"><stop offset="20%" stop-color="#005000" stop-opacity="1"></stop><stop offset="80%" stop-color="#003a00" stop-opacity="1"></stop></linearGradient></defs><defs><linearGradient id="grad1_6" x1="33.3%" y1="0%" x2="100%" y2="100%"><stop offset="20%" stop-color="#002a00" stop-opacity="1"></stop><stop offset="80%" stop-color="#003a00" stop-opacity="1"></stop></linearGradient></defs><defs><linearGradient id="grad1_7" x1="33.3%" y1="0%" x2="100%" y2="100%"><stop offset="20%" stop-color="#002a00" stop-opacity="1"></stop><stop offset="80%" stop-color="#000000" stop-opacity="1"></stop></linearGradient></defs><defs><linearGradient id="grad2_0" x1="0%" y1="0%" x2="66.7%" y2="100%"><stop offset="20%" stop-color="#1aae05" stop-opacity="1"></stop><stop offset="80%" stop-color="#1aae05" stop-opacity="1"></stop></linearGradient></defs><defs><linearGradient id="grad2_1" x1="0%" y1="0%" x2="66.7%" y2="100%"><stop offset="20%" stop-color="#009600" stop-opacity="1"></stop><stop offset="80%" stop-color="#1aae05" stop-opacity="1"></stop></linearGradient></defs><defs><linearGradient id="grad2_2" x1="0%" y1="0%" x2="66.7%" y2="100%"><stop offset="20%" stop-color="#009600" stop-opacity="1"></stop><stop offset="80%" stop-color="#007e00" stop-opacity="1"></stop></linearGradient></defs><defs><linearGradient id="grad2_3" x1="0%" y1="0%" x2="66.7%" y2="100%"><stop offset="20%" stop-color="#006700" stop-opacity="1"></stop><stop offset="80%" stop-color="#007e00" stop-opacity="1"></stop></linearGradient></defs><defs><linearGradient id="grad2_4" x1="0%" y1="0%" x2="66.7%" y2="100%"><stop offset="20%" stop-color="#006700" stop-opacity="1"></stop><stop offset="80%" stop-color="#005000" stop-opacity="1"></stop></linearGradient></defs><defs><linearGradient id="grad2_5" x1="0%" y1="0%" x2="66.7%" y2="100%"><stop offset="20%" stop-color="#003a00" stop-opacity="1"></stop><stop offset="80%" stop-color="#005000" stop-opacity="1"></stop></linearGradient></defs><defs><linearGradient id="grad2_6" x1="0%" y1="0%" x2="66.7%" y2="100%"><stop offset="20%" stop-color="#003a00" stop-opacity="1"></stop><stop offset="80%" stop-color="#002a00" stop-opacity="1"></stop></linearGradient></defs><defs><linearGradient id="grad2_7" x1="0%" y1="0%" x2="66.7%" y2="100%"><stop offset="20%" stop-color="#000000" stop-opacity="1"></stop><stop offset="80%" stop-color="#002a00" stop-opacity="1"></stop></linearGradient></defs><g transform="translate(900, 0)"><path d="M0 486.7C-69.7 486 -139.3 485.4 -186.3 449.7C-233.2 414 -257.5 343.4 -294.2 294.2C-330.8 244.9 -379.7 216.9 -413.9 171.4C-448.1 126 -467.4 63 -486.7 0L0 0Z" fill="#002400"></path><path d="M0 425.9C-60.9 425.3 -121.9 424.7 -163 393.5C-204.1 362.3 -225.3 300.5 -257.4 257.4C-289.4 214.3 -332.3 189.8 -362.2 150C-392 110.2 -409 55.1 -425.9 0L0 0Z" fill="#003100"></path><path d="M0 365.1C-52.2 364.5 -104.5 364 -139.7 337.3C-174.9 310.5 -193.1 257.6 -220.6 220.6C-248.1 183.7 -284.8 162.7 -310.4 128.6C-336 94.5 -350.6 47.2 -365.1 0L0 0Z" fill="#004400"></path><path d="M0 304.2C-43.5 303.8 -87.1 303.3 -116.4 281.1C-145.8 258.8 -161 214.6 -183.8 183.8C-206.7 153 -237.3 135.6 -258.7 107.2C-280 78.7 -292.1 39.4 -304.2 0L0 0Z" fill="#005b00"></path><path d="M0 243.4C-34.8 243 -69.7 242.7 -93.1 224.8C-116.6 207 -128.8 171.7 -147.1 147.1C-165.4 122.4 -189.9 108.5 -206.9 85.7C-224 63 -233.7 31.5 -243.4 0L0 0Z" fill="#007200"></path><path d="M0 182.5C-26.1 182.3 -52.2 182 -69.9 168.6C-87.5 155.3 -96.6 128.8 -110.3 110.3C-124 91.8 -142.4 81.3 -155.2 64.3C-168 47.2 -175.3 23.6 -182.5 0L0 0Z" fill="#008a00"></path><path d="M0 121.7C-17.4 121.5 -34.8 121.3 -46.6 112.4C-58.3 103.5 -64.4 85.9 -73.5 73.5C-82.7 61.2 -94.9 54.2 -103.5 42.9C-112 31.5 -116.9 15.7 -121.7 0L0 0Z" fill="#00a200"></path><path d="M0 60.8C-8.7 60.8 -17.4 60.7 -23.3 56.2C-29.2 51.8 -32.2 42.9 -36.8 36.8C-41.3 30.6 -47.5 27.1 -51.7 21.4C-56 15.7 -58.4 7.9 -60.8 0L0 0Z" fill="#1aae05"></path></g><g transform="translate(0, 600)"><path d="M0 -486.7C61.4 -478.6 122.9 -470.4 186.3 -449.7C249.7 -429 315.1 -395.9 342.9 -342.9C370.8 -290 361.1 -217.4 378.8 -156.9C396.5 -96.4 441.6 -48.2 486.7 0L0 0Z" fill="#002400"></path><path d="M0 -425.9C53.7 -418.7 107.5 -411.6 163 -393.5C218.5 -375.4 275.7 -346.4 300.1 -300.1C324.4 -253.8 315.9 -190.2 331.4 -137.3C346.9 -84.4 386.4 -42.2 425.9 0L0 0Z" fill="#003100"></path><path d="M0 -365.1C46.1 -358.9 92.1 -352.8 139.7 -337.3C187.3 -321.8 236.3 -296.9 257.2 -257.2C278.1 -217.5 270.8 -163 284.1 -117.7C297.4 -72.3 331.2 -36.2 365.1 0L0 0Z" fill="#004400"></path><path d="M0 -304.2C38.4 -299.1 76.8 -294 116.4 -281.1C156.1 -268.1 196.9 -247.4 214.3 -214.3C231.7 -181.3 225.7 -135.8 236.7 -98.1C247.8 -60.3 276 -30.1 304.2 0L0 0Z" fill="#005b00"></path><path d="M0 -243.4C30.7 -239.3 61.4 -235.2 93.1 -224.8C124.8 -214.5 157.5 -197.9 171.5 -171.5C185.4 -145 180.5 -108.7 189.4 -78.5C198.2 -48.2 220.8 -24.1 243.4 0L0 0Z" fill="#007200"></path><path d="M0 -182.5C23 -179.5 46.1 -176.4 69.9 -168.6C93.6 -160.9 118.2 -148.4 128.6 -128.6C139 -108.8 135.4 -81.5 142 -58.8C148.7 -36.2 165.6 -18.1 182.5 0L0 0Z" fill="#008a00"></path><path d="M0 -121.7C15.4 -119.6 30.7 -117.6 46.6 -112.4C62.4 -107.3 78.8 -99 85.7 -85.7C92.7 -72.5 90.3 -54.3 94.7 -39.2C99.1 -24.1 110.4 -12.1 121.7 0L0 0Z" fill="#00a200"></path><path d="M0 -60.8C7.7 -59.8 15.4 -58.8 23.3 -56.2C31.2 -53.6 39.4 -49.5 42.9 -42.9C46.3 -36.3 45.1 -27.2 47.3 -19.6C49.6 -12.1 55.2 -6 60.8 0L0 0Z" fill="#1aae05"></path></g></svg>