<svg id="visual" viewBox="0 0 900 600" width="900" height="600" xmlns="http://www.w3.org/2000/svg" xmlns:xlink="http://www.w3.org/1999/xlink" version="1.1"><rect x="0" y="0" width="900" height="600" fill="#000000"></rect><defs><linearGradient id="grad1_0" x1="33.3%" y1="0%" x2="100%" y2="100%"><stop offset="20%" stop-color="#1aae05" stop-opacity="1"></stop><stop offset="80%" stop-color="#1aae05" stop-opacity="1"></stop></linearGradient></defs><defs><linearGradient id="grad1_1" x1="33.3%" y1="0%" x2="100%" y2="100%"><stop offset="20%" stop-color="#1aae05" stop-opacity="1"></stop><stop offset="80%" stop-color="#009200" stop-opacity="1"></stop></linearGradient></defs><defs><linearGradient id="grad1_2" x1="33.3%" y1="0%" x2="100%" y2="100%"><stop offset="20%" stop-color="#007600" stop-opacity="1"></stop><stop offset="80%" stop-color="#009200" stop-opacity="1"></stop></linearGradient></defs><defs><linearGradient id="grad1_3" x1="33.3%" y1="0%" x2="100%" y2="100%"><stop offset="20%" stop-color="#007600" stop-opacity="1"></stop><stop offset="80%" stop-color="#005b00" stop-opacity="1"></stop></linearGradient></defs><defs><linearGradient id="grad1_4" x1="33.3%" y1="0%" x2="100%" y2="100%"><stop offset="20%" stop-color="#004100" stop-opacity="1"></stop><stop offset="80%" stop-color="#005b00" stop-opacity="1"></stop></linearGradient></defs><defs><linearGradient id="grad1_5" x1="33.3%" y1="0%" x2="100%" y2="100%"><stop offset="20%" stop-color="#004100" stop-opacity="1"></stop><stop offset="80%" stop-color="#002c00" stop-opacity="1"></stop></linearGradient></defs><defs><linearGradient id="grad1_6" x1="33.3%" y1="0%" x2="100%" y2="100%"><stop offset="20%" stop-color="#000000" stop-opacity="1"></stop><stop offset="80%" stop-color="#002c00" stop-opacity="1"></stop></linearGradient></defs><defs><linearGradient id="grad2_0" x1="0%" y1="0%" x2="66.7%" y2="100%"><stop offset="20%" stop-color="#1aae05" stop-opacity="1"></stop><stop offset="80%" stop-color="#1aae05" stop-opacity="1"></stop></linearGradient></defs><defs><linearGradient id="grad2_1" x1="0%" y1="0%" x2="66.7%" y2="100%"><stop offset="20%" stop-color="#009200" stop-opacity="1"></stop><stop offset="80%" stop-color="#1aae05" stop-opacity="1"></stop></linearGradient></defs><defs><linearGradient id="grad2_2" x1="0%" y1="0%" x2="66.7%" y2="100%"><stop offset="20%" stop-color="#009200" stop-opacity="1"></stop><stop offset="80%" stop-color="#007600" stop-opacity="1"></stop></linearGradient></defs><defs><linearGradient id="grad2_3" x1="0%" y1="0%" x2="66.7%" y2="100%"><stop offset="20%" stop-color="#005b00" stop-opacity="1"></stop><stop offset="80%" stop-color="#007600" stop-opacity="1"></stop></linearGradient></defs><defs><linearGradient id="grad2_4" x1="0%" y1="0%" x2="66.7%" y2="100%"><stop offset="20%" stop-color="#005b00" stop-opacity="1"></stop><stop offset="80%" stop-color="#004100" stop-opacity="1"></stop></linearGradient></defs><defs><linearGradient id="grad2_5" x1="0%" y1="0%" x2="66.7%" y2="100%"><stop offset="20%" stop-color="#002c00" stop-opacity="1"></stop><stop offset="80%" stop-color="#004100" stop-opacity="1"></stop></linearGradient></defs><defs><linearGradient id="grad2_6" x1="0%" y1="0%" x2="66.7%" y2="100%"><stop offset="20%" stop-color="#002c00" stop-opacity="1"></stop><stop offset="80%" stop-color="#000000" stop-opacity="1"></stop></linearGradient></defs><g transform="translate(900, 0)"><path d="M0 486.7C-52.2 457.5 -104.5 428.3 -170.3 411.1C-236.1 393.9 -315.6 388.8 -344.2 344.2C-372.8 299.6 -350.6 215.5 -365.9 151.5C-381.1 87.6 -433.9 43.8 -486.7 0L0 0Z" fill="#002500"></path><path d="M0 417.2C-44.8 392.2 -89.5 367.1 -146 352.4C-202.4 337.7 -270.5 333.3 -295 295C-319.5 256.8 -300.5 184.7 -313.6 129.9C-326.7 75.1 -372 37.5 -417.2 0L0 0Z" fill="#003500"></path><path d="M0 347.7C-37.3 326.8 -74.6 305.9 -121.6 293.7C-168.7 281.4 -225.4 277.7 -245.8 245.8C-266.3 214 -250.4 153.9 -261.3 108.2C-272.2 62.6 -310 31.3 -347.7 0L0 0Z" fill="#004e00"></path><path d="M0 278.1C-29.8 261.4 -59.7 244.7 -97.3 234.9C-134.9 225.1 -180.3 222.2 -196.7 196.7C-213 171.2 -200.3 123.1 -209.1 86.6C-217.8 50.1 -248 25 -278.1 0L0 0Z" fill="#006800"></path><path d="M0 208.6C-22.4 196.1 -44.8 183.6 -73 176.2C-101.2 168.8 -135.2 166.6 -147.5 147.5C-159.8 128.4 -150.2 92.4 -156.8 64.9C-163.3 37.5 -186 18.8 -208.6 0L0 0Z" fill="#008400"></path><path d="M0 139.1C-14.9 130.7 -29.8 122.4 -48.7 117.5C-67.5 112.6 -90.2 111.1 -98.3 98.3C-106.5 85.6 -100.2 61.6 -104.5 43.3C-108.9 25 -124 12.5 -139.1 0L0 0Z" fill="#00a000"></path><path d="M0 69.5C-7.5 65.4 -14.9 61.2 -24.3 58.7C-33.7 56.3 -45.1 55.5 -49.2 49.2C-53.3 42.8 -50.1 30.8 -52.3 21.6C-54.4 12.5 -62 6.3 -69.5 0L0 0Z" fill="#1aae05"></path></g><g transform="translate(0, 600)"><path d="M0 -486.7C63.5 -477.5 127 -468.2 184.1 -444.4C241.2 -420.6 291.9 -382.2 338 -338C384.1 -293.7 425.7 -243.6 449.7 -186.3C473.7 -129 480.2 -64.5 486.7 0L0 0Z" fill="#002500"></path><path d="M0 -417.2C54.4 -409.3 108.8 -401.3 157.8 -380.9C206.7 -360.5 250.2 -327.6 289.7 -289.7C329.2 -251.8 364.9 -208.8 385.5 -159.7C406.1 -110.5 411.6 -55.3 417.2 0L0 0Z" fill="#003500"></path><path d="M0 -347.7C45.3 -341.1 90.7 -334.4 131.5 -317.4C172.3 -300.4 208.5 -273 241.4 -241.4C274.4 -209.8 304 -174 321.2 -133.1C338.4 -92.1 343 -46.1 347.7 0L0 0Z" fill="#004e00"></path><path d="M0 -278.1C36.3 -272.8 72.6 -267.5 105.2 -253.9C137.8 -240.3 166.8 -218.4 193.1 -193.1C219.5 -167.9 243.2 -139.2 257 -106.4C270.7 -73.7 274.4 -36.8 278.1 0L0 0Z" fill="#006800"></path><path d="M0 -208.6C27.2 -204.6 54.4 -200.7 78.9 -190.5C103.4 -180.2 125.1 -163.8 144.9 -144.9C164.6 -125.9 182.4 -104.4 192.7 -79.8C203 -55.3 205.8 -27.6 208.6 0L0 0Z" fill="#008400"></path><path d="M0 -139.1C18.1 -136.4 36.3 -133.8 52.6 -127C68.9 -120.2 83.4 -109.2 96.6 -96.6C109.7 -83.9 121.6 -69.6 128.5 -53.2C135.4 -36.8 137.2 -18.4 139.1 0L0 0Z" fill="#00a000"></path><path d="M0 -69.5C9.1 -68.2 18.1 -66.9 26.3 -63.5C34.5 -60.1 41.7 -54.6 48.3 -48.3C54.9 -42 60.8 -34.8 64.2 -26.6C67.7 -18.4 68.6 -9.2 69.5 0L0 0Z" fill="#1aae05"></path></g></svg>