<svg id="visual" viewBox="0 0 900 600" width="900" height="600" xmlns="http://www.w3.org/2000/svg" xmlns:xlink="http://www.w3.org/1999/xlink" version="1.1"><rect x="0" y="0" width="900" height="600" fill="#000000"></rect><defs><linearGradient id="grad1_0" x1="33.3%" y1="0%" x2="100%" y2="100%"><stop offset="20%" stop-color="#87e37e" stop-opacity="1"></stop><stop offset="80%" stop-color="#87e37e" stop-opacity="1"></stop></linearGradient></defs><defs><linearGradient id="grad1_1" x1="33.3%" y1="0%" x2="100%" y2="100%"><stop offset="20%" stop-color="#87e37e" stop-opacity="1"></stop><stop offset="80%" stop-color="#60bc5a" stop-opacity="1"></stop></linearGradient></defs><defs><linearGradient id="grad1_2" x1="33.3%" y1="0%" x2="100%" y2="100%"><stop offset="20%" stop-color="#389638" stop-opacity="1"></stop><stop offset="80%" stop-color="#60bc5a" stop-opacity="1"></stop></linearGradient></defs><defs><linearGradient id="grad1_3" x1="33.3%" y1="0%" x2="100%" y2="100%"><stop offset="20%" stop-color="#389638" stop-opacity="1"></stop><stop offset="80%" stop-color="#007214" stop-opacity="1"></stop></linearGradient></defs><defs><linearGradient id="grad1_4" x1="33.3%" y1="0%" x2="100%" y2="100%"><stop offset="20%" stop-color="#004f00" stop-opacity="1"></stop><stop offset="80%" stop-color="#007214" stop-opacity="1"></stop></linearGradient></defs><defs><linearGradient id="grad1_5" x1="33.3%" y1="0%" x2="100%" y2="100%"><stop offset="20%" stop-color="#004f00" stop-opacity="1"></stop><stop offset="80%" stop-color="#002f00" stop-opacity="1"></stop></linearGradient></defs><defs><linearGradient id="grad1_6" x1="33.3%" y1="0%" x2="100%" y2="100%"><stop offset="20%" stop-color="#000000" stop-opacity="1"></stop><stop offset="80%" stop-color="#002f00" stop-opacity="1"></stop></linearGradient></defs><defs><linearGradient id="grad2_0" x1="0%" y1="0%" x2="66.7%" y2="100%"><stop offset="20%" stop-color="#87e37e" stop-opacity="1"></stop><stop offset="80%" stop-color="#87e37e" stop-opacity="1"></stop></linearGradient></defs><defs><linearGradient id="grad2_1" x1="0%" y1="0%" x2="66.7%" y2="100%"><stop offset="20%" stop-color="#60bc5a" stop-opacity="1"></stop><stop offset="80%" stop-color="#87e37e" stop-opacity="1"></stop></linearGradient></defs><defs><linearGradient id="grad2_2" x1="0%" y1="0%" x2="66.7%" y2="100%"><stop offset="20%" stop-color="#60bc5a" stop-opacity="1"></stop><stop offset="80%" stop-color="#389638" stop-opacity="1"></stop></linearGradient></defs><defs><linearGradient id="grad2_3" x1="0%" y1="0%" x2="66.7%" y2="100%"><stop offset="20%" stop-color="#007214" stop-opacity="1"></stop><stop offset="80%" stop-color="#389638" stop-opacity="1"></stop></linearGradient></defs><defs><linearGradient id="grad2_4" x1="0%" y1="0%" x2="66.7%" y2="100%"><stop offset="20%" stop-color="#007214" stop-opacity="1"></stop><stop offset="80%" stop-color="#004f00" stop-opacity="1"></stop></linearGradient></defs><defs><linearGradient id="grad2_5" x1="0%" y1="0%" x2="66.7%" y2="100%"><stop offset="20%" stop-color="#002f00" stop-opacity="1"></stop><stop offset="80%" stop-color="#004f00" stop-opacity="1"></stop></linearGradient></defs><defs><linearGradient id="grad2_6" x1="0%" y1="0%" x2="66.7%" y2="100%"><stop offset="20%" stop-color="#002f00" stop-opacity="1"></stop><stop offset="80%" stop-color="#000000" stop-opacity="1"></stop></linearGradient></defs><g transform="translate(900, 0)"><path d="M0 459.7C-60.9 453.9 -121.9 448.1 -175.9 424.7C-230 401.3 -277.1 360.4 -315.4 315.4C-353.6 270.3 -383 221.2 -405.6 168C-428.2 114.8 -443.9 57.4 -459.7 0L0 0Z" fill="#002400"></path><path d="M0 394C-52.2 389.1 -104.5 384.1 -150.8 364C-197.1 344 -237.5 308.9 -270.3 270.3C-303.1 231.7 -328.3 189.6 -347.6 144C-367 98.4 -380.5 49.2 -394 0L0 0Z" fill="#003f00"></path><path d="M0 328.4C-43.5 324.2 -87.1 320.1 -125.7 303.4C-164.3 286.7 -197.9 257.4 -225.3 225.3C-252.6 193.1 -273.6 158 -289.7 120C-305.8 82 -317.1 41 -328.4 0L0 0Z" fill="#006100"></path><path d="M0 262.7C-34.8 259.4 -69.6 256.1 -100.5 242.7C-131.4 229.3 -158.3 205.9 -180.2 180.2C-202.1 154.5 -218.9 126.4 -231.8 96C-244.7 65.6 -253.7 32.8 -262.7 0L0 0Z" fill="#218426"></path><path d="M0 197C-26.1 194.5 -52.2 192 -75.4 182C-98.6 172 -118.8 154.5 -135.2 135.2C-151.6 115.9 -164.1 94.8 -173.8 72C-183.5 49.2 -190.3 24.6 -197 0L0 0Z" fill="#4da949"></path><path d="M0 131.3C-17.4 129.7 -34.8 128 -50.3 121.3C-65.7 114.7 -79.2 103 -90.1 90.1C-101 77.2 -109.4 63.2 -115.9 48C-122.3 32.8 -126.8 16.4 -131.3 0L0 0Z" fill="#74cf6c"></path><path d="M0 65.7C-8.7 64.8 -17.4 64 -25.1 60.7C-32.9 57.3 -39.6 51.5 -45.1 45.1C-50.5 38.6 -54.7 31.6 -57.9 24C-61.2 16.4 -63.4 8.2 -65.7 0L0 0Z" fill="#87e37e"></path></g><g transform="translate(0, 600)"><path d="M0 -459.7C56.7 -447.4 113.5 -435 172.2 -415.7C230.9 -396.5 291.6 -370.2 325.1 -325.1C358.5 -279.9 364.6 -215.8 382.5 -158.4C400.4 -101.1 430 -50.5 459.7 0L0 0Z" fill="#002400"></path><path d="M0 -394C48.6 -383.5 97.3 -372.9 147.6 -356.4C197.9 -339.8 250 -317.3 278.6 -278.6C307.3 -239.9 312.5 -184.9 327.8 -135.8C343.2 -86.7 368.6 -43.3 394 0L0 0Z" fill="#003f00"></path><path d="M0 -328.4C40.5 -319.5 81.1 -310.7 123 -297C165 -283.2 208.3 -264.5 232.2 -232.2C256.1 -199.9 260.4 -154.1 273.2 -113.2C286 -72.2 307.2 -36.1 328.4 0L0 0Z" fill="#006100"></path><path d="M0 -262.7C32.4 -255.6 64.8 -248.6 98.4 -237.6C132 -226.6 166.7 -211.6 185.7 -185.7C204.8 -159.9 208.3 -123.3 218.6 -90.5C228.8 -57.8 245.7 -28.9 262.7 0L0 0Z" fill="#218426"></path><path d="M0 -197C24.3 -191.7 48.6 -186.4 73.8 -178.2C99 -169.9 125 -158.7 139.3 -139.3C153.6 -120 156.3 -92.5 163.9 -67.9C171.6 -43.3 184.3 -21.7 197 0L0 0Z" fill="#4da949"></path><path d="M0 -131.3C16.2 -127.8 32.4 -124.3 49.2 -118.8C66 -113.3 83.3 -105.8 92.9 -92.9C102.4 -80 104.2 -61.6 109.3 -45.3C114.4 -28.9 122.9 -14.4 131.3 0L0 0Z" fill="#74cf6c"></path><path d="M0 -65.7C8.1 -63.9 16.2 -62.1 24.6 -59.4C33 -56.6 41.7 -52.9 46.4 -46.4C51.2 -40 52.1 -30.8 54.6 -22.6C57.2 -14.4 61.4 -7.2 65.7 0L0 0Z" fill="#87e37e"></path></g></svg>