<svg id="visual" viewBox="0 0 900 600" width="900" height="600" xmlns="http://www.w3.org/2000/svg" xmlns:xlink="http://www.w3.org/1999/xlink" version="1.1"><rect x="0" y="0" width="900" height="600" fill="#000000"></rect><g fill="#ffffff"><circle r="49" cx="800" cy="39"></circle><circle r="4" cx="783" cy="295"></circle><circle r="36" cx="523" cy="127"></circle><circle r="9" cx="476" cy="337"></circle><circle r="37" cx="349" cy="57"></circle><circle r="17" cx="462" cy="595"></circle><circle r="10" cx="840" cy="514"></circle><circle r="31" cx="370" cy="508"></circle><circle r="41" cx="10" cy="516"></circle><circle r="5" cx="641" cy="125"></circle><circle r="43" cx="75" cy="289"></circle><circle r="23" cx="306" cy="223"></circle><circle r="20" cx="472" cy="473"></circle><circle r="9" cx="253" cy="358"></circle><circle r="5" cx="86" cy="150"></circle><circle r="20" cx="661" cy="455"></circle><circle r="9" cx="729" cy="543"></circle><circle r="33" cx="459" cy="27"></circle><circle r="30" cx="571" cy="499"></circle><circle r="35" cx="588" cy="292"></circle><circle r="7" cx="34" cy="65"></circle><circle r="23" cx="149" cy="56"></circle><circle r="47" cx="265" cy="572"></circle><circle r="29" cx="245" cy="9"></circle><circle r="35" cx="774" cy="400"></circle><circle r="17" cx="684" cy="354"></circle><circle r="42" cx="145" cy="451"></circle><circle r="35" cx="182" cy="285"></circle><circle r="33" cx="365" cy="337"></circle><circle r="18" cx="868" cy="140"></circle><circle r="12" cx="741" cy="188"></circle><circle r="42" cx="697" cy="3"></circle><circle r="44" cx="631" cy="580"></circle><circle r="32" cx="882" cy="253"></circle><circle r="13" cx="458" cy="200"></circle></g></svg>