<svg id="visual" viewBox="0 0 900 600" width="900" height="600" xmlns="http://www.w3.org/2000/svg" xmlns:xlink="http://www.w3.org/1999/xlink" version="1.1"><path d="M0 241L9.3 232C18.7 223 37.3 205 56.2 194C75 183 94 179 112.8 168C131.7 157 150.3 139 169 151C187.7 163 206.3 205 225 214C243.7 223 262.3 199 281.2 203C300 207 319 239 337.8 241C356.7 243 375.3 215 394 172C412.7 129 431.3 71 450 72C468.7 73 487.3 133 506.2 162C525 191 544 189 562.8 162C581.7 135 600.3 83 619 88C637.7 93 656.3 155 675 160C693.7 165 712.3 113 731.2 125C750 137 769 213 787.8 233C806.7 253 825.3 217 844 182C862.7 147 881.3 113 890.7 96L900 79L900 0L890.7 0C881.3 0 862.7 0 844 0C825.3 0 806.7 0 787.8 0C769 0 750 0 731.2 0C712.3 0 693.7 0 675 0C656.3 0 637.7 0 619 0C600.3 0 581.7 0 562.8 0C544 0 525 0 506.2 0C487.3 0 468.7 0 450 0C431.3 0 412.7 0 394 0C375.3 0 356.7 0 337.8 0C319 0 300 0 281.2 0C262.3 0 243.7 0 225 0C206.3 0 187.7 0 169 0C150.3 0 131.7 0 112.8 0C94 0 75 0 56.2 0C37.3 0 18.7 0 9.3 0L0 0Z" fill="#bac4d4"></path><path d="M0 319L9.3 313C18.7 307 37.3 295 56.2 285C75 275 94 267 112.8 245C131.7 223 150.3 187 169 192C187.7 197 206.3 243 225 264C243.7 285 262.3 281 281.2 285C300 289 319 301 337.8 312C356.7 323 375.3 333 394 302C412.7 271 431.3 199 450 194C468.7 189 487.3 251 506.2 278C525 305 544 297 562.8 266C581.7 235 600.3 181 619 193C637.7 205 656.3 283 675 288C693.7 293 712.3 225 731.2 222C750 219 769 281 787.8 296C806.7 311 825.3 279 844 254C862.7 229 881.3 211 890.7 202L900 193L900 77L890.7 94C881.3 111 862.7 145 844 180C825.3 215 806.7 251 787.8 231C769 211 750 135 731.2 123C712.3 111 693.7 163 675 158C656.3 153 637.7 91 619 86C600.3 81 581.7 133 562.8 160C544 187 525 189 506.2 160C487.3 131 468.7 71 450 70C431.3 69 412.7 127 394 170C375.3 213 356.7 241 337.8 239C319 237 300 205 281.2 201C262.3 197 243.7 221 225 212C206.3 203 187.7 161 169 149C150.3 137 131.7 155 112.8 166C94 177 75 181 56.2 192C37.3 203 18.7 221 9.3 230L0 239Z" fill="#aab7ca"></path><path d="M0 415L9.3 418C18.7 421 37.3 427 56.2 436C75 445 94 457 112.8 450C131.7 443 150.3 417 169 424C187.7 431 206.3 471 225 462C243.7 453 262.3 395 281.2 371C300 347 319 357 337.8 367C356.7 377 375.3 387 394 350C412.7 313 431.3 229 450 234C468.7 239 487.3 333 506.2 391C525 449 544 471 562.8 450C581.7 429 600.3 365 619 373C637.7 381 656.3 461 675 459C693.7 457 712.3 373 731.2 364C750 355 769 421 787.8 420C806.7 419 825.3 351 844 322C862.7 293 881.3 303 890.7 308L900 313L900 191L890.7 200C881.3 209 862.7 227 844 252C825.3 277 806.7 309 787.8 294C769 279 750 217 731.2 220C712.3 223 693.7 291 675 286C656.3 281 637.7 203 619 191C600.3 179 581.7 233 562.8 264C544 295 525 303 506.2 276C487.3 249 468.7 187 450 192C431.3 197 412.7 269 394 300C375.3 331 356.7 321 337.8 310C319 299 300 287 281.2 283C262.3 279 243.7 283 225 262C206.3 241 187.7 195 169 190C150.3 185 131.7 221 112.8 243C94 265 75 273 56.2 283C37.3 293 18.7 305 9.3 311L0 317Z" fill="#9baac1"></path><path d="M0 475L9.3 477C18.7 479 37.3 483 56.2 499C75 515 94 543 112.8 550C131.7 557 150.3 543 169 535C187.7 527 206.3 525 225 514C243.7 503 262.3 483 281.2 489C300 495 319 527 337.8 531C356.7 535 375.3 511 394 513C412.7 515 431.3 543 450 540C468.7 537 487.3 503 506.2 499C525 495 544 521 562.8 532C581.7 543 600.3 539 619 546C637.7 553 656.3 571 675 559C693.7 547 712.3 505 731.2 489C750 473 769 483 787.8 494C806.7 505 825.3 517 844 535C862.7 553 881.3 577 890.7 589L900 601L900 311L890.7 306C881.3 301 862.7 291 844 320C825.3 349 806.7 417 787.8 418C769 419 750 353 731.2 362C712.3 371 693.7 455 675 457C656.3 459 637.7 379 619 371C600.3 363 581.7 427 562.8 448C544 469 525 447 506.2 389C487.3 331 468.7 237 450 232C431.3 227 412.7 311 394 348C375.3 385 356.7 375 337.8 365C319 355 300 345 281.2 369C262.3 393 243.7 451 225 460C206.3 469 187.7 429 169 422C150.3 415 131.7 441 112.8 448C94 455 75 443 56.2 434C37.3 425 18.7 419 9.3 416L0 413Z" fill="#8593a8"></path><path d="M0 601L9.3 601C18.7 601 37.3 601 56.2 601C75 601 94 601 112.8 601C131.7 601 150.3 601 169 601C187.7 601 206.3 601 225 601C243.7 601 262.3 601 281.2 601C300 601 319 601 337.8 601C356.7 601 375.3 601 394 601C412.7 601 431.3 601 450 601C468.7 601 487.3 601 506.2 601C525 601 544 601 562.8 601C581.7 601 600.3 601 619 601C637.7 601 656.3 601 675 601C693.7 601 712.3 601 731.2 601C750 601 769 601 787.8 601C806.7 601 825.3 601 844 601C862.7 601 881.3 601 890.7 601L900 601L900 599L890.7 587C881.3 575 862.7 551 844 533C825.3 515 806.7 503 787.8 492C769 481 750 471 731.2 487C712.3 503 693.7 545 675 557C656.3 569 637.7 551 619 544C600.3 537 581.7 541 562.8 530C544 519 525 493 506.2 497C487.3 501 468.7 535 450 538C431.3 541 412.7 513 394 511C375.3 509 356.7 533 337.8 529C319 525 300 493 281.2 487C262.3 481 243.7 501 225 512C206.3 523 187.7 525 169 533C150.3 541 131.7 555 112.8 548C94 541 75 513 56.2 497C37.3 481 18.7 477 9.3 475L0 473Z" fill="#6f7c8f"></path></svg>